<svg width="18" height="12" viewBox="0 0 18 12" fill="none" xmlns="http://www.w3.org/2000/svg">
<path fill-rule="evenodd" clip-rule="evenodd" d="M2.52366 1.54723C2.52366 2.10605 2.07065 2.55906 1.51183 2.55906C0.953012 2.55906 0.5 2.10605 0.5 1.54723C0.5 0.988413 0.953012 0.5354 1.51183 0.5354C2.07065 0.5354 2.52366 0.988413 2.52366 1.54723ZM4.75091 0.939891C4.41562 0.939891 4.14381 1.2117 4.14381 1.54699C4.14381 1.88228 4.41562 2.15409 4.75091 2.15409H16.8929C17.2282 2.15409 17.5 1.88228 17.5 1.54699C17.5 1.2117 17.2282 0.939891 16.8929 0.939891H4.75091ZM1.51183 7.0088C2.07065 7.0088 2.52366 6.55579 2.52366 5.99697C2.52366 5.43815 2.07065 4.98514 1.51183 4.98514C0.953012 4.98514 0.5 5.43815 0.5 5.99697C0.5 6.55579 0.953012 7.0088 1.51183 7.0088ZM4.75091 5.38963C4.41562 5.38963 4.14381 5.66144 4.14381 5.99673C4.14381 6.33202 4.41562 6.60383 4.75091 6.60383H16.8929C17.2282 6.60383 17.5 6.33202 17.5 5.99673C17.5 5.66144 17.2282 5.38963 16.8929 5.38963H4.75091ZM4.14381 10.4525C4.14381 10.1172 4.41562 9.84536 4.75091 9.84536H16.8929C17.2282 9.84536 17.5 10.1172 17.5 10.4525C17.5 10.7878 17.2282 11.0596 16.8929 11.0596H4.75091C4.41562 11.0596 4.14381 10.7878 4.14381 10.4525ZM2.52366 10.4527C2.52366 11.0115 2.07065 11.4645 1.51183 11.4645C0.953012 11.4645 0.5 11.0115 0.5 10.4527C0.5 9.89388 0.953012 9.44087 1.51183 9.44087C2.07065 9.44087 2.52366 9.89388 2.52366 10.4527Z" fill="black"/>
</svg>

