<svg width="16" height="17" viewBox="0 0 16 17" fill="none" xmlns="http://www.w3.org/2000/svg">
    <path fill-rule="evenodd" clip-rule="evenodd" d="M4.65804 2.75063C5.54668 1.8842 6.74897 1.3999 7.99971 1.3999C9.25044 1.3999 10.4527 1.8842 11.3414 2.75063C12.2305 3.61752 12.7327 4.79637 12.7327 6.02865C12.7327 8.31501 13.2343 9.74318 13.7036 10.5819C13.9391 11.0029 14.1697 11.2814 14.3327 11.4492C14.4144 11.5332 14.4795 11.5898 14.5202 11.6229C14.5405 11.6395 14.5548 11.6501 14.562 11.6554C14.5644 11.6571 14.566 11.6582 14.5668 11.6588C14.7722 11.7955 14.8648 12.0503 14.7945 12.2873C14.7237 12.5263 14.5041 12.6903 14.2548 12.6903H1.74465C1.49536 12.6903 1.27575 12.5263 1.2049 12.2873C1.13464 12.0503 1.22725 11.7955 1.43261 11.6588C1.43344 11.6582 1.43504 11.6571 1.43737 11.6554C1.4446 11.6501 1.45888 11.6395 1.47924 11.6229C1.51995 11.5898 1.58501 11.5332 1.66668 11.4492C1.82971 11.2814 2.06036 11.0029 2.29585 10.5819C2.76508 9.74318 3.26671 8.31501 3.26671 6.02865C3.26671 4.79637 3.76892 3.61752 4.65804 2.75063Z" stroke="black" stroke-width="1.2" stroke-linecap="round" stroke-linejoin="round" />
    <path fill-rule="evenodd" clip-rule="evenodd" d="M6.12328 14.7868C6.38179 14.6141 6.73139 14.6836 6.90414 14.9421C7.00479 15.0928 7.15571 15.227 7.34929 15.3238C7.543 15.4207 7.76761 15.4738 7.99983 15.4738C8.23205 15.4738 8.45666 15.4207 8.65038 15.3238C8.84395 15.227 8.99487 15.0928 9.09553 14.9421C9.26827 14.6836 9.61787 14.6141 9.87638 14.7868C10.1349 14.9596 10.2044 15.3092 10.0317 15.5677C9.81449 15.8927 9.50921 16.1532 9.1539 16.3309C8.79873 16.5085 8.40103 16.5998 7.99983 16.5998C7.59863 16.5998 7.20093 16.5085 6.84576 16.3309C6.49045 16.1532 6.18517 15.8927 5.968 15.5677C5.79525 15.3092 5.86477 14.9596 6.12328 14.7868Z" fill="black" />
</svg>
    