<svg width="23" height="20" viewBox="0 0 23 20" fill="none" xmlns="http://www.w3.org/2000/svg">
<path fill-rule="evenodd" clip-rule="evenodd" d="M18.4999 10.0001C18.4999 9.3929 18.9927 8.9001 19.5999 8.9001C20.2071 8.9001 20.6999 9.3929 20.6999 10.0001C20.6999 10.6073 20.2071 11.1001 19.5999 11.1001C18.9927 11.1001 18.4999 10.6073 18.4999 10.0001ZM19.5999 13.3001C21.4193 13.3001 22.8999 11.8195 22.8999 10.0001C22.8999 8.1807 21.4193 6.7001 19.5999 6.7001C18.1677 6.7001 16.9588 7.623 16.5034 8.9001L1.9999 8.9001C1.3916 8.9001 0.899902 9.3918 0.899902 10.0001C0.899902 10.6084 1.3916 11.1001 1.9999 11.1001L16.5034 11.1001C16.9588 12.3772 18.1677 13.3001 19.5999 13.3001ZM5.2999 3.4001C5.2999 2.7929 5.7927 2.3001 6.3999 2.3001C7.0071 2.3001 7.4999 2.7929 7.4999 3.4001C7.4999 4.0073 7.0071 4.5001 6.3999 4.5001C5.7927 4.5001 5.2999 4.0073 5.2999 3.4001ZM9.4964 4.5001L21.7999 4.5001C22.4082 4.5001 22.8999 4.0084 22.8999 3.4001C22.8999 2.7918 22.4082 2.3001 21.7999 2.3001L9.4964 2.3001C9.041 1.023 7.8321 0.100098 6.3999 0.100098C4.9677 0.100098 3.7588 1.023 3.3034 2.3001H1.9999C1.3916 2.3001 0.899902 2.7918 0.899902 3.4001C0.899902 4.0084 1.3916 4.5001 1.9999 4.5001H3.3034C3.7588 5.7772 4.9677 6.7001 6.3999 6.7001C7.8321 6.7001 9.041 5.7772 9.4964 4.5001ZM9.6999 16.6001C9.6999 15.9929 10.1927 15.5001 10.7999 15.5001C11.4071 15.5001 11.8999 15.9929 11.8999 16.6001C11.8999 17.2073 11.4071 17.7001 10.7999 17.7001C10.1927 17.7001 9.6999 17.2073 9.6999 16.6001ZM10.7999 19.9001C12.2321 19.9001 13.441 18.9772 13.8964 17.7001H21.7999C22.4082 17.7001 22.8999 17.2084 22.8999 16.6001C22.8999 15.9918 22.4082 15.5001 21.7999 15.5001H13.8964C13.441 14.223 12.2321 13.3001 10.7999 13.3001C9.3677 13.3001 8.1588 14.223 7.7034 15.5001H1.9999C1.3916 15.5001 0.899902 15.9918 0.899902 16.6001C0.899902 17.2084 1.3916 17.7001 1.9999 17.7001H7.7034C8.1588 18.9772 9.3677 19.9001 10.7999 19.9001Z" fill="#222B45"/>
</svg>
