<svg width="18" height="18" viewBox="0 0 18 18" fill="none" xmlns="http://www.w3.org/2000/svg">
    <path d="M9 0.5C4.31117 0.5 0.5 4.31117 0.5 9C0.5 13.6888 4.31117 17.5 9 17.5C13.6888 17.5 17.5 13.6888 17.5 9C17.5 4.31117 13.6888 0.5 9 0.5ZM9 1.44444C13.1784 1.44444 16.5556 4.82159 16.5556 9C16.5556 13.1784 13.1784 16.5556 9 16.5556C4.82159 16.5556 1.44444 13.1784 1.44444 9C1.44444 4.82159 4.82159 1.44444 9 1.44444ZM9 4.27778C7.46128 4.27778 6.16667 5.57238 6.16667 7.11111C6.16578 7.17369 6.17734 7.23581 6.20068 7.29388C6.22401 7.35195 6.25865 7.4048 6.30259 7.44937C6.34653 7.49393 6.39888 7.52931 6.45662 7.55347C6.51435 7.57762 6.57631 7.59006 6.63889 7.59006C6.70147 7.59006 6.76343 7.57762 6.82116 7.55347C6.87889 7.52931 6.93125 7.49393 6.97519 7.44937C7.01912 7.4048 7.05377 7.35195 7.0771 7.29388C7.10044 7.23581 7.112 7.17369 7.11111 7.11111C7.11111 6.11632 8.00522 5.22222 9 5.22222C9.99478 5.22222 10.8889 6.11632 10.8889 7.11111C10.896 7.92987 10.4534 8.35228 9.87066 8.88194C9.5793 9.14677 9.257 9.4244 8.99262 9.77474C8.72825 10.1251 8.52778 10.5743 8.52778 11.1029V11.3611C8.52689 11.4237 8.53845 11.4858 8.56179 11.5439C8.58512 11.6019 8.61976 11.6548 8.6637 11.6994C8.70764 11.7439 8.76 11.7793 8.81773 11.8035C8.87546 11.8276 8.93742 11.8401 9 11.8401C9.06258 11.8401 9.12454 11.8276 9.18227 11.8035C9.24 11.7793 9.29236 11.7439 9.3363 11.6994C9.38024 11.6548 9.41488 11.6019 9.43821 11.5439C9.46155 11.4858 9.47311 11.4237 9.47222 11.3611V11.1029C9.47222 10.7993 9.56416 10.5828 9.74523 10.3429C9.92629 10.1029 10.2041 9.85658 10.5052 9.5829C11.1061 9.03673 11.8403 8.29807 11.8333 7.11111C11.8333 7.10863 11.8333 7.10621 11.8333 7.10373C11.8292 5.56828 10.5362 4.27778 9 4.27778ZM9 12.5417C8.6088 12.5417 8.29167 12.8588 8.29167 13.25C8.29167 13.6412 8.6088 13.9583 9 13.9583C9.3912 13.9583 9.70833 13.6412 9.70833 13.25C9.70833 12.8588 9.3912 12.5417 9 12.5417Z" fill="black" stroke="black" stroke-width="0.2" />
</svg>
    