<svg width="17" height="16" viewBox="0 0 17 16" fill="none" xmlns="http://www.w3.org/2000/svg">
    <path fill-rule="evenodd" clip-rule="evenodd" d="M8.113 11.4603C8.242 11.4603 8.37101 11.4913 8.48866 11.5525L11.5467 13.1594L10.9649 9.76858C10.9187 9.50267 11.0071 9.23186 11.2002 9.04344L13.6635 6.64859L10.2534 6.1494C9.98967 6.11106 9.76168 5.94548 9.64322 5.70566L8.113 2.61096L6.58278 5.70566C6.46432 5.94548 6.23633 6.11106 5.97264 6.1494L2.5625 6.64859L5.02578 9.04344C5.21888 9.23186 5.30732 9.50267 5.26108 9.76858L4.67933 13.1594L7.73734 11.5525C7.85499 11.4913 7.98399 11.4603 8.113 11.4603ZM12.626 15.4613C12.497 15.4613 12.368 15.4311 12.2503 15.3691L8.11321 13.1961L3.9761 15.3691C3.70186 15.5127 3.37082 15.4874 3.12336 15.3047C2.87346 15.122 2.74932 14.8128 2.80125 14.5069L3.58989 9.91626L0.247096 6.66576C0.023973 6.44961 -0.05554 6.12497 0.0393888 5.82887C0.133506 5.53278 0.388273 5.31744 0.694154 5.27258L5.3197 4.59719L7.38623 0.415998C7.66047 -0.138666 8.56595 -0.138666 8.84018 0.415998L10.9067 4.59719L15.5323 5.27258C15.8381 5.31744 16.0929 5.53278 16.187 5.82887C16.282 6.12497 16.2024 6.44961 15.9793 6.66576L12.6365 9.91626L13.4252 14.5069C13.4771 14.8128 13.353 15.122 13.1031 15.3047C12.9627 15.4091 12.7947 15.4613 12.626 15.4613Z" fill="#282828" />
</svg>
    