<svg width="375" height="308" viewBox="0 0 375 308" fill="none" xmlns="http://www.w3.org/2000/svg">
<g clip-path="url(#clip0_7_528)">
<path d="M322.58 150.024H318.779V300.003H322.58V150.024Z" fill="#3F3D56"/>
<path d="M357.659 169.138C357.901 221.581 320.964 264.267 320.964 264.267C320.964 264.267 283.636 221.923 283.394 169.48C283.152 117.036 320.088 74.3506 320.088 74.3506C320.088 74.3506 357.417 116.694 357.659 169.138Z" fill="#3F3D56"/>
<path d="M246.58 220.592H244.625V297.729H246.58V220.592Z" fill="#3F3D56"/>
<path d="M264.622 230.422C264.746 257.395 245.749 279.349 245.749 279.349C245.749 279.349 226.55 257.571 226.426 230.598C226.301 203.625 245.298 181.671 245.298 181.671C245.298 181.671 264.497 203.449 264.622 230.422Z" fill="#3F3D56"/>
<path d="M285.113 308C314.365 308 338.079 304.369 338.079 299.89C338.079 295.411 314.365 291.78 285.113 291.78C255.861 291.78 232.147 295.411 232.147 299.89C232.147 304.369 255.861 308 285.113 308Z" fill="#3F3D56"/>
<path d="M289.481 110.871C284.994 103.297 276.116 102.944 276.116 102.944C276.116 102.944 267.465 101.839 261.916 113.374C256.743 124.126 249.604 134.508 260.766 137.025L262.783 130.756L264.031 137.491C265.62 137.605 267.215 137.633 268.807 137.573C280.761 137.187 292.145 137.686 291.779 133.401C291.291 127.704 293.799 118.159 289.481 110.871Z" fill="#2F2E41"/>
<path d="M273.321 125.135C273.321 125.135 279.12 133.245 275.641 139.81C272.161 146.376 283.76 153.327 283.76 153.327L292.265 134.79C292.265 134.79 282.213 128.224 284.92 122.045L273.321 125.135Z" fill="#FBBEBE"/>
<path d="M277.187 128.61C282.739 128.61 287.239 124.115 287.239 118.569C287.239 113.023 282.739 108.528 277.187 108.528C271.636 108.528 267.135 113.023 267.135 118.569C267.135 124.115 271.636 128.61 277.187 128.61Z" fill="#FBBEBE"/>
<path d="M242.4 130.177L250.801 119.35C250.801 119.35 253.758 108.002 258.042 108.577C262.326 109.152 256.35 122.186 256.35 122.186L248.004 134.17L242.4 130.177Z" fill="#FBBEBE"/>
<path d="M284.92 274.207L287.626 288.497L293.425 290.042L291.879 273.049L284.92 274.207Z" fill="#FBBEBE"/>
<path d="M343.298 258.76L353.737 273.049L357.989 274.98L361.469 269.187L351.03 255.67L343.298 258.76Z" fill="#FBBEBE"/>
<path d="M282.6 147.148L276.151 138.667C276.151 138.667 263.656 140.969 262.496 142.127C261.336 143.286 265.589 164.527 265.589 164.527C265.589 164.527 266.362 170.32 269.842 173.409L273.321 175.727L301.93 169.934L303.006 157.218C303.398 152.586 302.817 147.924 301.3 143.53C299.783 139.135 297.364 135.106 294.198 131.7L289.22 132.38L282.6 147.148Z" fill="#575A89"/>
<path d="M264.043 142.9L262.109 142.127L253.217 141.355C253.217 141.355 250.125 140.583 250.898 139.038C251.671 137.493 252.444 137.107 250.898 136.721C249.351 136.334 248.965 135.948 249.351 134.79C249.738 133.631 252.058 131.314 252.058 131.314L245.485 125.907C245.485 125.907 245.129 126.158 244.555 126.623C241.291 129.263 230.966 138.785 238.526 148.307C247.418 159.506 257.857 166.072 266.362 163.755L264.043 142.9Z" fill="#575A89"/>
<path d="M272.548 173.796V179.202C272.548 179.202 269.069 185.768 270.228 191.947C271.388 198.126 271.775 201.216 271.775 201.216C271.901 206.471 272.813 211.678 274.481 216.664C277.187 224.388 268.295 274.98 279.507 275.752C290.719 276.525 296.905 277.297 300.384 273.435C303.864 269.573 294.585 203.147 294.585 203.147C294.585 203.147 326.287 269.187 332.859 266.484C339.432 263.78 356.056 257.601 354.123 254.125C352.19 250.649 303.477 173.409 303.477 173.409L301.931 169.934L272.548 173.796Z" fill="#2F2E41"/>
<path d="M291.105 285.793C291.105 285.793 284.92 285.407 284.92 287.338C284.92 289.269 281.827 295.835 281.827 295.835C281.827 295.835 279.507 303.559 285.693 302.786C291.879 302.014 295.745 295.062 295.745 295.062L294.198 287.724L291.105 285.793Z" fill="#2F2E41"/>
<path d="M355.669 272.277C355.669 272.277 350.257 268.801 350.643 271.118C351.03 273.435 351.417 279.614 354.123 280.001C356.829 280.387 364.948 282.704 365.335 283.476C365.721 284.249 375 287.338 375 282.318C375 277.297 369.201 273.435 369.201 273.435L362.628 268.415C362.628 268.415 358.376 268.028 357.602 270.732C356.829 273.435 355.669 272.277 355.669 272.277Z" fill="#2F2E41"/>
<path d="M277.203 109.394C280.748 109.394 283.622 106.523 283.622 102.982C283.622 99.4405 280.748 96.5696 277.203 96.5696C273.657 96.5696 270.783 99.4405 270.783 102.982C270.783 106.523 273.657 109.394 277.203 109.394Z" fill="#2F2E41"/>
<path d="M270.108 101.294C270.108 99.7107 270.695 98.1831 271.755 97.0058C272.816 95.8285 274.275 95.0849 275.851 94.9181C275.627 94.8944 275.401 94.8823 275.176 94.8821C273.473 94.8821 271.84 95.5577 270.636 96.7602C269.433 97.9628 268.756 99.5938 268.756 101.294C268.756 102.995 269.433 104.626 270.636 105.829C271.84 107.031 273.473 107.707 275.176 107.707C275.401 107.707 275.627 107.695 275.851 107.671C274.275 107.504 272.816 106.76 271.755 105.583C270.695 104.406 270.108 102.878 270.108 101.294Z" fill="#2F2E41"/>
<path d="M287.497 110.141L278.727 105.551L266.614 107.429L264.108 118.485L270.347 118.245L272.089 114.183V118.178L274.968 118.068L276.638 111.601L277.682 118.485L287.915 118.276L287.497 110.141Z" fill="#2F2E41"/>
<path d="M286.972 174.69L273.446 175.056C273.446 175.056 261.904 177.299 262.551 172.645C263.199 167.992 274.459 169.619 274.459 169.619L286.784 167.741L286.972 174.69Z" fill="#FBBEBE"/>
<path d="M297.674 131.045C298.354 130.942 299.049 131.085 299.632 131.448C300.216 131.811 300.651 132.371 300.858 133.026C303.507 141.361 311.665 169.256 303.559 173.083C294.012 177.591 287.045 177.393 287.045 177.393L283.316 168.221L286.711 165.039L290.335 141.761L292.072 131.893L297.674 131.045Z" fill="#575A89"/>
<path opacity="0.4" d="M295.165 146.569L293.618 162.017L280.087 167.81L295.165 164.334V146.569Z" fill="black"/>
<path d="M222.19 95.5701C226.548 96.7237 230.319 99.46 232.765 103.244L234.029 105.2L234.093 105.281L256.279 111.766C256.685 111.885 257.029 112.158 257.236 112.528C257.443 112.897 257.496 113.333 257.385 113.741L255.662 120.05C255.606 120.255 255.51 120.448 255.379 120.616C255.248 120.784 255.086 120.925 254.9 121.03C254.715 121.135 254.51 121.202 254.299 121.228C254.087 121.254 253.872 121.238 253.667 121.181L231.476 114.984L231.475 114.985L229.246 115.827C225.142 117.377 220.641 117.53 216.441 116.262L222.19 95.5701Z" fill="#3F3D56"/>
<path d="M245.554 113.866C245.764 113.148 244.843 112.248 243.497 111.854C242.15 111.461 240.888 111.723 240.678 112.44C240.468 113.158 241.389 114.058 242.736 114.452C244.082 114.845 245.344 114.583 245.554 113.866Z" fill="#575A89"/>
<path d="M244.421 114.527C244.936 114.527 245.353 114.111 245.353 113.597C245.353 113.083 244.936 112.666 244.421 112.666C243.907 112.666 243.49 113.083 243.49 113.597C243.49 114.111 243.907 114.527 244.421 114.527Z" fill="#3F3D56"/>
<path d="M224.045 107.519C225.895 101.82 225.303 96.5223 222.723 95.6866C220.143 94.8509 216.552 98.7936 214.702 104.493C212.852 110.192 213.444 115.49 216.024 116.326C218.604 117.161 222.195 113.219 224.045 107.519Z" fill="black"/>
<path opacity="0.4" d="M223.355 107.318C225.138 101.826 224.653 96.7079 222.307 95.5945C222.448 95.6121 222.588 95.6429 222.723 95.6864C225.303 96.5221 225.895 101.82 224.045 107.519C222.195 113.219 218.604 117.161 216.024 116.326C215.93 116.295 215.839 116.258 215.75 116.216C218.288 116.539 221.603 112.717 223.355 107.318Z" fill="black"/>
<path d="M222.482 95.5902L172.13 56.5743C163.227 49.6252 154.682 42.2282 146.531 34.4121C132.178 20.7453 112.693 9.81856 90.0079 4.00104C34.8922 -10.133 -8.77073 14.9283 -28.6299 51.7269C-58.9767 107.959 -82.2336 199.209 52.3242 150.637C81.7518 140.014 111.539 138.885 134.126 133.289L215.909 116.445L222.482 95.5902Z" fill="black"/>
<path d="M71.3169 29.9363C72.8115 29.9363 74.0231 28.726 74.0231 27.2329C74.0231 25.7399 72.8115 24.5295 71.3169 24.5295C69.8222 24.5295 68.6106 25.7399 68.6106 27.2329C68.6106 28.726 69.8222 29.9363 71.3169 29.9363Z" fill="#F2F2F2"/>
<path d="M123.888 33.4815H123.184V32.7778H123.046V33.4815H122.342V33.619H123.046V34.3226H123.184V33.619H123.888V33.4815Z" fill="#F2F2F2"/>
<path d="M194.638 92.1839H193.934V91.4802H193.796V92.1839H193.092V92.3214H193.796V93.025H193.934V92.3214H194.638V92.1839Z" fill="#F2F2F2"/>
<path d="M189.612 110.335H188.908V109.632H188.77V110.335H188.066V110.473H188.77V111.176H188.908V110.473H189.612V110.335Z" fill="#F2F2F2"/>
<path d="M4.42548 41.5918H3.72107V40.8882H3.58343V41.5918H2.87903V41.7293H3.58343V42.433H3.72107V41.7293H4.42548V41.5918Z" fill="#F2F2F2"/>
<path d="M124.662 113.425H123.957V112.721H123.82V113.425H123.115V113.562H123.82V114.266H123.957V113.562H124.662V113.425Z" fill="#F2F2F2"/>
<path d="M50.8189 16.875H50.1145V16.1714H49.9769V16.875H49.2725V17.0125H49.9769V17.7162H50.1145V17.0125H50.8189V16.875Z" fill="#F2F2F2"/>
<path d="M51.0896 72.4792L50.212 72.6144C50.4865 74.3678 50.703 76.1597 50.8616 77.9324L51.7469 77.8551C51.5884 76.0593 51.368 74.2519 51.0896 72.4792Z" fill="#E6E6E6"/>
<path d="M48.6887 61.9204L47.8381 62.1792C48.3523 63.8784 48.8124 65.6202 49.2029 67.3542L50.0728 67.1573C49.6745 65.4039 49.2068 63.6429 48.6887 61.9204Z" fill="#E6E6E6"/>
<path d="M44.8575 51.7944L44.0494 52.1652C44.7917 53.7834 45.4876 55.444 46.1178 57.1047L46.949 56.7919C46.3111 55.1119 45.6114 53.428 44.8575 51.7944Z" fill="#E6E6E6"/>
<path d="M39.6768 42.3015L38.9268 42.7765C39.8817 44.275 40.798 45.8275 41.6485 47.3839L42.4294 46.9591C41.5712 45.3834 40.6433 43.8154 39.6768 42.3015Z" fill="#E6E6E6"/>
<path d="M33.2359 33.6006L32.5593 34.176C33.7114 35.5277 34.8326 36.9412 35.8919 38.3701L36.6033 37.8411C35.5362 36.3967 34.4034 34.9677 33.2359 33.6006Z" fill="#E6E6E6"/>
<path d="M25.666 25.8533L25.0745 26.5137C26.4044 27.6993 27.7073 28.9467 28.9483 30.2173L29.5862 29.5955C28.3298 28.3095 27.0114 27.0505 25.666 25.8533Z" fill="#E6E6E6"/>
<path d="M17.1142 19.2029L16.6155 19.9367C18.0923 20.9292 19.5537 21.9874 20.9571 23.0803L21.5061 22.3813C20.0834 21.2768 18.6065 20.207 17.1142 19.2029Z" fill="#E6E6E6"/>
<path d="M9.33167 14.584V15.5881C10.2557 16.0709 11.1719 16.5768 12.0689 17.0943L12.5135 16.3257C11.4696 15.7233 10.409 15.1427 9.33167 14.584Z" fill="#E6E6E6"/>
<path d="M51.1495 83.4109L52.0382 83.3948C52.0545 84.2912 52.0558 85.1923 52.0419 86.0735L51.1533 86.0596C51.1668 85.1885 51.1656 84.2973 51.1495 83.4109Z" fill="#E6E6E6"/>
<path d="M177.511 110.327L176.634 110.462C176.908 112.215 177.125 114.007 177.283 115.78L178.169 115.703C178.01 113.907 177.79 112.1 177.511 110.327Z" fill="#E6E6E6"/>
<path d="M175.111 99.7681L174.26 100.027C174.774 101.726 175.234 103.468 175.625 105.202L176.495 105.005C176.096 103.252 175.629 101.491 175.111 99.7681Z" fill="#E6E6E6"/>
<path d="M171.279 89.6418L170.471 90.0126C171.213 91.6308 171.909 93.2914 172.54 94.9521L173.371 94.6393C172.733 92.9593 172.033 91.2755 171.279 89.6418Z" fill="#E6E6E6"/>
<path d="M166.099 80.1492L165.349 80.6242C166.304 82.1226 167.22 83.6752 168.07 85.2316L168.851 84.8067C167.993 83.2311 167.065 81.6631 166.099 80.1492Z" fill="#E6E6E6"/>
<path d="M159.658 71.448L158.981 72.0234C160.133 73.3751 161.254 74.7886 162.314 76.2176L163.025 75.6885C161.958 74.2441 160.825 72.8151 159.658 71.448Z" fill="#E6E6E6"/>
<path d="M152.088 63.7009L151.496 64.3613C152.826 65.547 154.129 66.7944 155.37 68.065L156.008 67.4432C154.752 66.1571 153.433 64.8981 152.088 63.7009Z" fill="#E6E6E6"/>
<path d="M143.536 57.0505L143.037 57.7843C144.514 58.7768 145.976 59.835 147.379 60.928L147.928 60.2289C146.505 59.1244 145.028 58.0547 143.536 57.0505Z" fill="#E6E6E6"/>
<path d="M135.754 52.4316V53.4358C136.678 53.9185 137.594 54.4244 138.491 54.9419L138.935 54.1734C137.892 53.5709 136.831 52.9903 135.754 52.4316Z" fill="#E6E6E6"/>
<path d="M177.571 121.259L178.46 121.242C178.476 122.139 178.478 123.04 178.464 123.921L177.575 123.907C177.589 123.036 177.587 122.145 177.571 121.259Z" fill="#E6E6E6"/>
<path d="M5.71912 77.1994H5.06382V76.5444H4.93584V77.1994H4.28015V77.3269H4.93584V77.9819H5.06382V77.3269H5.71912V77.1994Z" fill="#F2F2F2"/>
<path d="M37.6623 107.434C31.3245 98.0231 28.5726 86.6549 29.9057 75.3909C31.2388 64.127 36.5687 53.7132 44.9288 46.0381C53.2889 38.363 64.1256 33.9348 75.4738 33.5564C86.8219 33.1781 97.9301 36.8747 106.784 43.976C115.638 51.0772 121.651 61.1128 123.733 72.2629C125.815 83.4129 123.828 94.9392 118.132 104.751C112.436 114.563 103.409 122.012 92.6877 125.746C81.9661 129.48 70.2599 129.252 59.6921 125.103C59.007 127.546 57.7262 129.781 55.9643 131.608C54.2025 133.435 52.0146 134.797 49.5965 135.572C47.1784 136.348 44.6056 136.512 42.1085 136.05C39.6113 135.589 37.2677 134.516 35.2874 132.927C33.3072 131.339 31.7521 129.285 30.7614 126.949C29.7707 124.613 29.3753 122.069 29.6106 119.543C29.8459 117.017 30.7046 114.588 32.1098 112.475C33.5149 110.362 35.4227 108.63 37.6623 107.434Z" fill="#3F3D56"/>
<path d="M76.7911 53.8506C87.6758 53.8506 95.1644 59.8815 95.1644 68.551C95.1644 74.292 92.378 78.2643 87.0082 81.4247C81.9577 84.3532 80.2452 86.4988 80.2452 90.2101C80.2452 90.5109 80.1859 90.8088 80.0707 91.0867C79.9554 91.3646 79.7865 91.6171 79.5736 91.8298C79.3607 92.0425 79.1079 92.2113 78.8297 92.3264C78.5515 92.4415 78.2533 92.5007 77.9522 92.5007H72.3877C71.7934 92.5007 71.2223 92.2702 70.7948 91.8578C70.3673 91.4454 70.1168 90.8833 70.0961 90.29L70.0862 90.0072C69.5928 84.0342 71.6826 80.3229 76.9363 77.2494C81.8416 74.321 83.9025 72.4653 83.9025 68.8699C83.9025 65.2746 80.4194 62.636 76.0945 62.636C72.8074 62.636 70.2059 64.2344 69.0127 66.8439C68.5933 67.7273 67.9295 68.4722 67.0996 68.9905C66.2698 69.5089 65.3087 69.7789 64.3301 69.7688C60.5598 69.7688 58.0692 65.7637 59.8324 62.4347C62.6215 57.1686 68.5065 53.8506 76.7911 53.8506ZM69.1574 103.548C69.1574 100.213 71.9438 97.5748 75.3689 97.5748C78.8229 97.5748 81.6094 100.184 81.6094 103.548C81.6094 106.911 78.8229 109.521 75.3689 109.521C71.9148 109.521 69.1574 106.911 69.1574 103.548Z" fill="black"/>
</g>
<defs>
<clipPath id="clip0_7_528">
<rect width="427" height="308" fill="white" transform="translate(-52)"/>
</clipPath>
</defs>
</svg>
