<svg width="375" height="399" viewBox="0 0 375 399" fill="none" xmlns="http://www.w3.org/2000/svg">
<g clip-path="url(#clip0_7_152)">
<path d="M502.251 227.925H115.9C114.906 227.924 113.953 227.528 113.251 226.826C112.548 226.123 112.153 225.17 112.152 224.176V-4.25119C112.153 -5.24511 112.548 -6.198 113.251 -6.9008C113.953 -7.60361 114.906 -7.99891 115.9 -8H502.251C503.245 -7.99891 504.198 -7.6036 504.901 -6.9008C505.604 -6.198 505.999 -5.24511 506 -4.25119V224.176C505.999 225.17 505.604 226.123 504.901 226.826C504.198 227.528 503.245 227.924 502.251 227.925ZM115.9 -6.50048C115.304 -6.49983 114.732 -6.26264 114.311 -5.84096C113.889 -5.41928 113.652 -4.84754 113.651 -4.25119V224.176C113.652 224.772 113.889 225.344 114.311 225.766C114.732 226.188 115.304 226.425 115.9 226.425H502.251C502.848 226.425 503.419 226.188 503.841 225.766C504.263 225.344 504.5 224.772 504.501 224.176V-4.25119C504.5 -4.84754 504.263 -5.41928 503.841 -5.84096C503.419 -6.26264 502.848 -6.49983 502.251 -6.50048H115.9Z" fill="#E6E6E6"/>
<path d="M271.834 10.2433C271.055 10.2564 270.312 10.5753 269.765 11.1312C269.218 11.6872 268.912 12.4357 268.912 13.2154C268.912 13.9951 269.218 14.7436 269.765 15.2996C270.312 15.8555 271.055 16.1744 271.834 16.1875H346.349C347.135 16.1991 347.894 15.8984 348.46 15.3512C349.025 14.804 349.35 14.0551 349.364 13.2685C349.378 12.4818 349.08 11.7217 348.535 11.1547C347.989 10.5877 347.241 10.26 346.455 10.2435L346.446 10.2433C346.414 10.2428 346.381 10.2428 346.349 10.2433H271.834Z" fill="#3F3D56"/>
<path d="M363.247 9.41591C363.137 9.52558 363.075 9.67433 363.075 9.82943C363.075 9.98453 363.137 10.1333 363.246 10.243L363.247 10.243L365.757 12.7536H359.566C359.412 12.7541 359.263 12.8159 359.154 12.9256C359.045 13.0352 358.983 13.1837 358.983 13.3385C358.983 13.4933 359.045 13.6418 359.154 13.7514C359.263 13.8611 359.412 13.9229 359.566 13.9233H365.757L363.247 16.434C363.192 16.4883 363.149 16.5528 363.12 16.6237C363.09 16.6947 363.075 16.7707 363.075 16.8475C363.075 16.9243 363.09 17.0004 363.12 17.0713C363.149 17.1423 363.192 17.2068 363.247 17.2611C363.301 17.3154 363.365 17.3585 363.436 17.3878C363.507 17.4172 363.583 17.4324 363.66 17.4324C363.737 17.4324 363.813 17.4172 363.884 17.3879C363.955 17.3585 364.019 17.3154 364.074 17.2611L367.582 13.7521C367.692 13.6424 367.754 13.4936 367.754 13.3385C367.754 13.1834 367.692 13.0346 367.582 12.9249L364.074 9.41592C364.019 9.36161 363.955 9.31854 363.884 9.28915C363.813 9.25976 363.737 9.24463 363.66 9.24463C363.583 9.24463 363.507 9.25976 363.436 9.28915C363.365 9.31854 363.301 9.36161 363.247 9.41592L363.247 9.41591Z" fill="#E6E6E6"/>
<path d="M254.905 9.41593C255.015 9.52559 255.076 9.67434 255.076 9.82944C255.076 9.98455 255.015 10.1333 254.905 10.243L254.905 10.243L252.395 12.7537H258.585C258.662 12.7534 258.738 12.7682 258.809 12.7975C258.881 12.8267 258.945 12.8696 259 12.9239C259.054 12.9782 259.098 13.0427 259.127 13.1137C259.157 13.1847 259.172 13.2609 259.172 13.3378C259.172 13.4147 259.157 13.4909 259.128 13.562C259.098 13.6331 259.055 13.6977 259.001 13.7521C258.946 13.8065 258.882 13.8496 258.811 13.879C258.74 13.9084 258.663 13.9235 258.587 13.9233H252.395L254.905 16.434C254.959 16.4883 255.002 16.5528 255.032 16.6237C255.061 16.6947 255.076 16.7707 255.076 16.8475C255.076 16.9243 255.061 17.0004 255.032 17.0713C255.002 17.1423 254.959 17.2068 254.905 17.2611C254.851 17.3154 254.786 17.3585 254.715 17.3879C254.644 17.4173 254.568 17.4324 254.492 17.4324C254.415 17.4324 254.339 17.4173 254.268 17.3879C254.197 17.3585 254.132 17.3154 254.078 17.2611L250.569 13.7521C250.46 13.6424 250.398 13.4936 250.398 13.3385C250.398 13.1834 250.46 13.0346 250.569 12.925L254.078 9.41593C254.188 9.30625 254.336 9.24463 254.492 9.24463C254.647 9.24462 254.795 9.30623 254.905 9.4159L254.905 9.41593Z" fill="#E6E6E6"/>
<path d="M111.928 240.507C108.54 240.507 105.228 239.503 102.411 237.62C99.5943 235.738 97.3988 233.063 96.1023 229.932C94.8058 226.802 94.4665 223.358 95.1275 220.035C95.7884 216.712 97.4199 213.659 99.8155 211.263C102.211 208.868 105.263 207.236 108.586 206.575C111.909 205.914 115.353 206.253 118.483 207.55C121.613 208.846 124.289 211.042 126.171 213.859C128.053 216.676 129.058 219.989 129.058 223.377C129.058 227.92 127.253 232.277 124.04 235.49C120.828 238.703 116.471 240.507 111.928 240.507Z" fill="black"/>
<path d="M118.687 221.687H113.618V216.617C113.618 216.169 113.44 215.739 113.123 215.422C112.806 215.106 112.376 214.927 111.928 214.927C111.48 214.927 111.05 215.106 110.733 215.422C110.416 215.739 110.238 216.169 110.238 216.617V221.687H105.169C104.721 221.687 104.291 221.865 103.974 222.182C103.657 222.499 103.479 222.929 103.479 223.377C103.479 223.825 103.657 224.255 103.974 224.572C104.291 224.889 104.721 225.067 105.169 225.067H110.238V230.136C110.238 230.584 110.416 231.014 110.733 231.331C111.05 231.648 111.48 231.826 111.928 231.826C112.376 231.826 112.806 231.648 113.123 231.331C113.44 231.014 113.618 230.584 113.618 230.136V225.067H118.687C119.135 225.067 119.565 224.889 119.882 224.572C120.199 224.255 120.377 223.825 120.377 223.377C120.377 222.929 120.199 222.499 119.882 222.182C119.565 221.865 119.135 221.687 118.687 221.687Z" fill="white"/>
<path d="M194.87 40.6733H143.389V75.6622H194.87V40.6733Z" fill="#F1F1F1"/>
<path d="M264.843 40.6733H213.363V75.6622H264.843V40.6733Z" fill="#F1F1F1"/>
<path d="M334.816 40.6733H283.336V75.6622H334.816V40.6733Z" fill="#F1F1F1"/>
<path d="M404.789 40.6733H353.309V75.6622H404.789V40.6733Z" fill="#F1F1F1"/>
<path d="M195.059 102.154H143.578V137.143H195.059V102.154Z" fill="#F1F1F1"/>
<path d="M265.031 102.154H213.551V137.143H265.031V102.154Z" fill="#F1F1F1"/>
<path d="M335.005 102.154H283.524V137.143H335.005V102.154Z" fill="#F1F1F1"/>
<path d="M404.978 102.154H353.498V137.143H404.978V102.154Z" fill="#F1F1F1"/>
<path d="M195.247 163.634H143.767V198.623H195.247V163.634Z" fill="#F1F1F1"/>
<path d="M265.22 163.634H213.74V198.623H265.22V163.634Z" fill="#F1F1F1"/>
<path d="M335.193 163.634H283.713V198.623H335.193V163.634Z" fill="#F1F1F1"/>
<path d="M405.166 163.634H353.686V198.623H405.166V163.634Z" fill="#F1F1F1"/>
<path d="M294.02 58.1677C297.609 58.1677 300.518 55.2585 300.518 51.6698C300.518 48.0811 297.609 45.1719 294.02 45.1719C290.432 45.1719 287.523 48.0811 287.523 51.6698C287.523 55.2585 290.432 58.1677 294.02 58.1677Z" fill="black"/>
<path d="M223.048 119.648C226.636 119.648 229.545 116.739 229.545 113.15C229.545 109.562 226.636 106.652 223.048 106.652C219.459 106.652 216.55 109.562 216.55 113.15C216.55 116.739 219.459 119.648 223.048 119.648Z" fill="black"/>
<path d="M294.02 181.129C297.609 181.129 300.518 178.219 300.518 174.631C300.518 171.042 297.609 168.133 294.02 168.133C290.432 168.133 287.523 171.042 287.523 174.631C287.523 178.219 290.432 181.129 294.02 181.129Z" fill="black"/>
<path d="M365.493 119.648C369.081 119.648 371.99 116.739 371.99 113.15C371.99 109.562 369.081 106.652 365.493 106.652C361.904 106.652 358.995 109.562 358.995 113.15C358.995 116.739 361.904 119.648 365.493 119.648Z" fill="#3F3D56"/>
<path d="M223.048 181.129C226.636 181.129 229.545 178.219 229.545 174.631C229.545 171.042 226.636 168.133 223.048 168.133C219.459 168.133 216.55 171.042 216.55 174.631C216.55 178.219 219.459 181.129 223.048 181.129Z" fill="#3F3D56"/>
<path d="M52.688 236.694C59.353 236.694 64.7561 231.29 64.7561 224.625C64.7561 217.959 59.353 212.556 52.688 212.556C46.023 212.556 40.6199 217.959 40.6199 224.625C40.6199 231.29 46.023 236.694 52.688 236.694Z" fill="#FFB8B8"/>
<path d="M48.3308 296.039C48.1788 296.039 48.0262 296.032 47.8728 296.019C47.1138 295.955 46.3768 295.732 45.71 295.364C45.0432 294.996 44.4617 294.491 44.0036 293.883C43.5455 293.274 43.2211 292.576 43.0517 291.833C42.8823 291.091 42.8718 290.321 43.0207 289.574C43.0559 289.4 43.1002 289.229 43.1534 289.06L25.3418 267.993C24.7615 267.301 24.4196 266.44 24.367 265.539C24.3144 264.637 24.5538 263.743 25.0497 262.988L25.082 262.949L41.1146 247.139C41.99 246.277 43.1719 245.798 44.4004 245.807C45.629 245.816 46.8036 246.313 47.6662 247.188C48.5287 248.062 49.0087 249.244 49.0004 250.473C48.9922 251.701 48.4965 252.876 47.6223 253.74C47.6022 253.76 47.5819 253.779 47.5614 253.799L35.9496 264.838L48.6617 285.242C48.9024 285.255 49.142 285.285 49.3787 285.331C50.6936 285.593 51.8641 286.335 52.6629 287.412C53.4616 288.489 53.8316 289.825 53.701 291.159C53.5704 292.494 52.9486 293.732 51.9562 294.634C50.9638 295.536 49.6717 296.036 48.3308 296.039Z" fill="#FFB8B8"/>
<path d="M72.564 392.594H78.5883L81.4538 369.357L72.563 369.358L72.564 392.594Z" fill="#FFB8B8"/>
<path d="M71.0276 390.627L82.8907 390.627H82.8912C83.884 390.627 84.867 390.822 85.7843 391.202C86.7015 391.582 87.5349 392.139 88.2369 392.841C88.939 393.543 89.4959 394.377 89.8758 395.294C90.2558 396.211 90.4513 397.194 90.4514 398.187V398.433L71.0279 398.434L71.0276 390.627Z" fill="#2F2E41"/>
<path d="M12.6902 384.265L17.866 387.347L32.216 368.848L24.5767 364.299L12.6902 384.265Z" fill="#FFB8B8"/>
<path d="M12.3759 381.789L22.5691 387.858L22.5695 387.858C24.2923 388.884 25.537 390.553 26.0299 392.496C26.5228 394.44 26.2234 396.5 25.1976 398.223L25.1975 398.223L25.0718 398.434L8.38257 388.496L12.3759 381.789Z" fill="#2F2E41"/>
<path d="M80.0095 384.387H73.2641C72.7179 384.388 72.1908 384.186 71.7847 383.821C71.3786 383.456 71.1224 382.953 71.0655 382.409L64.2652 318.482C64.248 318.321 64.1784 318.17 64.067 318.053C63.9557 317.935 63.8088 317.858 63.649 317.832C63.4892 317.806 63.3254 317.834 63.1829 317.911C63.0404 317.987 62.9271 318.109 62.8604 318.256L50.5924 345.423L28.8726 380.842C28.5915 381.296 28.1563 381.634 27.6466 381.793C27.1369 381.953 26.5869 381.923 26.0973 381.71L17.4204 377.892C17.1335 377.766 16.8767 377.58 16.6671 377.347C16.4575 377.114 16.2998 376.839 16.2045 376.54C16.1092 376.241 16.0785 375.926 16.1144 375.614C16.1503 375.303 16.252 375.003 16.4127 374.733L36.3792 341.299L42.5027 313.129C40.5768 300.912 48.8332 282.75 48.917 282.568L48.9579 282.479L71.7005 273.589L71.8146 273.729C80.7836 303.164 86.249 334.841 82.2135 382.361C82.1638 382.912 81.9105 383.425 81.503 383.8C81.0955 384.174 80.563 384.384 80.0095 384.387Z" fill="#2F2E41"/>
<path d="M48.0415 285.455L47.9356 285.233C47.885 285.126 42.828 274.46 38.9297 263.059C38.1805 260.855 37.8973 258.519 38.098 256.199C38.2987 253.879 38.9789 251.626 40.0956 249.583C41.2268 247.519 42.7744 245.712 44.6402 244.277C46.5061 242.842 48.6497 241.811 50.9351 241.247C54.9026 240.296 59.0798 240.802 62.7055 242.673C66.3313 244.544 69.1643 247.655 70.6884 251.44C73.7806 259.173 72.7951 267.427 71.8677 273.919L71.8492 274.049L71.7309 274.105L48.0415 285.455Z" fill="black"/>
<path d="M67.3202 217.807H48.1575V209.454C52.3635 207.783 56.4793 206.362 58.9672 209.454C61.1826 209.454 63.3072 210.334 64.8737 211.9C66.4402 213.467 67.3202 215.592 67.3202 217.807H67.3202Z" fill="#2F2E41"/>
<path d="M47.0964 207.98C35.6406 207.98 32.4341 222.34 32.4341 230.442C32.4341 234.96 34.4772 236.576 37.6878 237.122L38.8217 231.075L41.4773 237.383C42.3792 237.387 43.3266 237.37 44.3088 237.351L45.2092 235.497L47.2171 237.318C55.2589 237.33 61.7585 238.503 61.7585 230.442C61.7585 222.34 58.9465 207.98 47.0964 207.98Z" fill="#2F2E41"/>
<path d="M98.0168 224.052C98.0897 224.185 98.157 224.322 98.2187 224.464C98.527 225.16 98.6847 225.914 98.6814 226.675C98.678 227.437 98.5138 228.19 98.1995 228.883C97.8851 229.577 97.4278 230.197 96.8573 230.701C96.2869 231.206 95.6162 231.584 94.8893 231.812C94.7202 231.864 94.5484 231.908 94.3747 231.942L84.4275 257.674C84.0986 258.515 83.5074 259.228 82.7415 259.706C81.9756 260.185 81.0759 260.403 80.1759 260.33L80.126 260.321L58.566 253.83C57.3891 253.475 56.4011 252.668 55.8195 251.585C55.2379 250.502 55.1103 249.232 55.4647 248.055C55.8191 246.878 56.6265 245.89 57.7093 245.309C58.7921 244.727 60.0616 244.599 61.2386 244.954C61.2655 244.962 61.2923 244.97 61.3191 244.979L76.5739 249.877L88.3841 228.938C88.2797 228.72 88.1907 228.496 88.1178 228.266C87.7177 226.986 87.8075 225.603 88.3697 224.386C88.9319 223.169 89.9264 222.204 91.1601 221.679C92.3938 221.153 93.7786 221.105 95.0457 221.544C96.3128 221.982 97.3717 222.876 98.0168 224.052L98.0168 224.052Z" fill="#FFB8B8"/>
<path d="M100.517 399H0.520814C0.382685 399 0.250214 398.945 0.152542 398.847C0.0548709 398.75 0 398.617 0 398.479C0 398.341 0.0548709 398.208 0.152542 398.111C0.250214 398.013 0.382685 397.958 0.520814 397.958H100.517C100.655 397.958 100.788 398.013 100.885 398.111C100.983 398.208 101.038 398.341 101.038 398.479C101.038 398.617 100.983 398.75 100.885 398.847C100.788 398.945 100.655 399 100.517 399Z" fill="#CCCCCC"/>
</g>
<defs>
<clipPath id="clip0_7_152">
<rect width="506" height="407" fill="white" transform="translate(0 -8)"/>
</clipPath>
</defs>
</svg>
